solid OpenSCAD_Model
  facet normal 0.991445 0.130529 0
    outer loop
      vertex 4 0 10.8
      vertex 3.8637 1.03528 0
      vertex 3.8637 1.03528 10.8
    endloop
  endfacet
  facet normal 0.991445 0.130529 0
    outer loop
      vertex 3.8637 1.03528 0
      vertex 4 0 10.8
      vertex 4 0 0
    endloop
  endfacet
  facet normal 0.92388 0.382683 0
    outer loop
      vertex 3.8637 1.03528 10.8
      vertex 3.4641 2 0
      vertex 3.4641 2 10.8
    endloop
  endfacet
  facet normal 0.92388 0.382683 0
    outer loop
      vertex 3.4641 2 0
      vertex 3.8637 1.03528 10.8
      vertex 3.8637 1.03528 0
    endloop
  endfacet
  facet normal 0.793356 0.608757 0
    outer loop
      vertex 3.4641 2 10.8
      vertex 2.82843 2.82843 0
      vertex 2.82843 2.82843 10.8
    endloop
  endfacet
  facet normal 0.793356 0.608757 0
    outer loop
      vertex 2.82843 2.82843 0
      vertex 3.4641 2 10.8
      vertex 3.4641 2 0
    endloop
  endfacet
  facet normal 0.608757 0.793356 -0
    outer loop
      vertex 2.82843 2.82843 0
      vertex 2 3.4641 10.8
      vertex 2.82843 2.82843 10.8
    endloop
  endfacet
  facet normal 0.608757 0.793356 0
    outer loop
      vertex 2 3.4641 10.8
      vertex 2.82843 2.82843 0
      vertex 2 3.4641 0
    endloop
  endfacet
  facet normal 0.382683 0.92388 -0
    outer loop
      vertex 2 3.4641 0
      vertex 1.03528 3.8637 10.8
      vertex 2 3.4641 10.8
    endloop
  endfacet
  facet normal 0.382683 0.92388 0
    outer loop
      vertex 1.03528 3.8637 10.8
      vertex 2 3.4641 0
      vertex 1.03528 3.8637 0
    endloop
  endfacet
  facet normal 0.130529 0.991445 -0
    outer loop
      vertex 1.03528 3.8637 0
      vertex 0 4 10.8
      vertex 1.03528 3.8637 10.8
    endloop
  endfacet
  facet normal 0.130529 0.991445 0
    outer loop
      vertex 0 4 10.8
      vertex 1.03528 3.8637 0
      vertex 0 4 0
    endloop
  endfacet
  facet normal -0.130529 0.991445 0
    outer loop
      vertex 0 4 0
      vertex -1.03528 3.8637 10.8
      vertex 0 4 10.8
    endloop
  endfacet
  facet normal -0.130529 0.991445 0
    outer loop
      vertex -1.03528 3.8637 10.8
      vertex 0 4 0
      vertex -1.03528 3.8637 0
    endloop
  endfacet
  facet normal -0.382683 0.92388 0
    outer loop
      vertex -1.03528 3.8637 0
      vertex -2 3.4641 10.8
      vertex -1.03528 3.8637 10.8
    endloop
  endfacet
  facet normal -0.382683 0.92388 0
    outer loop
      vertex -2 3.4641 10.8
      vertex -1.03528 3.8637 0
      vertex -2 3.4641 0
    endloop
  endfacet
  facet normal -0.608757 0.793356 0
    outer loop
      vertex -2 3.4641 0
      vertex -2.82843 2.82843 10.8
      vertex -2 3.4641 10.8
    endloop
  endfacet
  facet normal -0.608757 0.793356 0
    outer loop
      vertex -2.82843 2.82843 10.8
      vertex -2 3.4641 0
      vertex -2.82843 2.82843 0
    endloop
  endfacet
  facet normal -0.793356 0.608757 0
    outer loop
      vertex -3.4641 2 0
      vertex -2.82843 2.82843 10.8
      vertex -2.82843 2.82843 0
    endloop
  endfacet
  facet normal -0.793356 0.608757 0
    outer loop
      vertex -2.82843 2.82843 10.8
      vertex -3.4641 2 0
      vertex -3.4641 2 10.8
    endloop
  endfacet
  facet normal -0.92388 0.382683 0
    outer loop
      vertex -3.8637 1.03528 0
      vertex -3.4641 2 10.8
      vertex -3.4641 2 0
    endloop
  endfacet
  facet normal -0.92388 0.382683 0
    outer loop
      vertex -3.4641 2 10.8
      vertex -3.8637 1.03528 0
      vertex -3.8637 1.03528 10.8
    endloop
  endfacet
  facet normal -0.991445 0.130529 0
    outer loop
      vertex -4 -0 0
      vertex -3.8637 1.03528 10.8
      vertex -3.8637 1.03528 0
    endloop
  endfacet
  facet normal -0.991445 0.130529 0
    outer loop
      vertex -3.8637 1.03528 10.8
      vertex -4 -0 0
      vertex -4 -0 10.8
    endloop
  endfacet
  facet normal -0.991445 -0.130529 0
    outer loop
      vertex -3.8637 -1.03528 0
      vertex -4 -0 10.8
      vertex -4 -0 0
    endloop
  endfacet
  facet normal -0.991445 -0.130529 0
    outer loop
      vertex -4 -0 10.8
      vertex -3.8637 -1.03528 0
      vertex -3.8637 -1.03528 10.8
    endloop
  endfacet
  facet normal -0.92388 -0.382683 0
    outer loop
      vertex -3.4641 -2 0
      vertex -3.8637 -1.03528 10.8
      vertex -3.8637 -1.03528 0
    endloop
  endfacet
  facet normal -0.92388 -0.382683 0
    outer loop
      vertex -3.8637 -1.03528 10.8
      vertex -3.4641 -2 0
      vertex -3.4641 -2 10.8
    endloop
  endfacet
  facet normal -0.793356 -0.608757 0
    outer loop
      vertex -2.82843 -2.82843 0
      vertex -3.4641 -2 10.8
      vertex -3.4641 -2 0
    endloop
  endfacet
  facet normal -0.793356 -0.608757 0
    outer loop
      vertex -3.4641 -2 10.8
      vertex -2.82843 -2.82843 0
      vertex -2.82843 -2.82843 10.8
    endloop
  endfacet
  facet normal -0.608757 -0.793356 0
    outer loop
      vertex -2.82843 -2.82843 0
      vertex -2 -3.4641 10.8
      vertex -2.82843 -2.82843 10.8
    endloop
  endfacet
  facet normal -0.608757 -0.793356 -0
    outer loop
      vertex -2 -3.4641 10.8
      vertex -2.82843 -2.82843 0
      vertex -2 -3.4641 0
    endloop
  endfacet
  facet normal -0.382683 -0.92388 0
    outer loop
      vertex -2 -3.4641 0
      vertex -1.03528 -3.8637 10.8
      vertex -2 -3.4641 10.8
    endloop
  endfacet
  facet normal -0.382683 -0.92388 -0
    outer loop
      vertex -1.03528 -3.8637 10.8
      vertex -2 -3.4641 0
      vertex -1.03528 -3.8637 0
    endloop
  endfacet
  facet normal -0.130529 -0.991445 0
    outer loop
      vertex -1.03528 -3.8637 0
      vertex -0 -4 10.8
      vertex -1.03528 -3.8637 10.8
    endloop
  endfacet
  facet normal -0.130529 -0.991445 -0
    outer loop
      vertex -0 -4 10.8
      vertex -1.03528 -3.8637 0
      vertex -0 -4 0
    endloop
  endfacet
  facet normal 0.130529 -0.991445 0
    outer loop
      vertex -0 -4 0
      vertex 1.03528 -3.8637 10.8
      vertex -0 -4 10.8
    endloop
  endfacet
  facet normal 0.130529 -0.991445 0
    outer loop
      vertex 1.03528 -3.8637 10.8
      vertex -0 -4 0
      vertex 1.03528 -3.8637 0
    endloop
  endfacet
  facet normal 0.382683 -0.92388 0
    outer loop
      vertex 1.03528 -3.8637 0
      vertex 2 -3.4641 10.8
      vertex 1.03528 -3.8637 10.8
    endloop
  endfacet
  facet normal 0.382683 -0.92388 0
    outer loop
      vertex 2 -3.4641 10.8
      vertex 1.03528 -3.8637 0
      vertex 2 -3.4641 0
    endloop
  endfacet
  facet normal 0.608757 -0.793356 0
    outer loop
      vertex 2 -3.4641 0
      vertex 2.82843 -2.82843 10.8
      vertex 2 -3.4641 10.8
    endloop
  endfacet
  facet normal 0.608757 -0.793356 0
    outer loop
      vertex 2.82843 -2.82843 10.8
      vertex 2 -3.4641 0
      vertex 2.82843 -2.82843 0
    endloop
  endfacet
  facet normal 0.793356 -0.608757 0
    outer loop
      vertex 2.82843 -2.82843 10.8
      vertex 3.4641 -2 0
      vertex 3.4641 -2 10.8
    endloop
  endfacet
  facet normal 0.793356 -0.608757 0
    outer loop
      vertex 3.4641 -2 0
      vertex 2.82843 -2.82843 10.8
      vertex 2.82843 -2.82843 0
    endloop
  endfacet
  facet normal 0.92388 -0.382683 0
    outer loop
      vertex 3.4641 -2 10.8
      vertex 3.8637 -1.03528 0
      vertex 3.8637 -1.03528 10.8
    endloop
  endfacet
  facet normal 0.92388 -0.382683 0
    outer loop
      vertex 3.8637 -1.03528 0
      vertex 3.4641 -2 10.8
      vertex 3.4641 -2 0
    endloop
  endfacet
  facet normal 0.991445 -0.130529 0
    outer loop
      vertex 3.8637 -1.03528 10.8
      vertex 4 0 0
      vertex 4 0 10.8
    endloop
  endfacet
  facet normal 0.991445 -0.130529 0
    outer loop
      vertex 4 0 0
      vertex 3.8637 -1.03528 10.8
      vertex 3.8637 -1.03528 0
    endloop
  endfacet
  facet normal 0 0 -1
    outer loop
      vertex 3.8637 -1.03528 0
      vertex 3.8637 1.03528 0
      vertex 4 0 0
    endloop
  endfacet
  facet normal 0 0 -1
    outer loop
      vertex 3.4641 -2 0
      vertex 3.8637 1.03528 0
      vertex 3.8637 -1.03528 0
    endloop
  endfacet
  facet normal 0 0 -1
    outer loop
      vertex 3.4641 -2 0
      vertex 3.4641 2 0
      vertex 3.8637 1.03528 0
    endloop
  endfacet
  facet normal 0 0 -1
    outer loop
      vertex 2.82843 -2.82843 0
      vertex 3.4641 2 0
      vertex 3.4641 -2 0
    endloop
  endfacet
  facet normal 0 0 -1
    outer loop
      vertex 2.82843 -2.82843 0
      vertex 2.82843 2.82843 0
      vertex 3.4641 2 0
    endloop
  endfacet
  facet normal 0 0 -1
    outer loop
      vertex 2 -3.4641 0
      vertex 2.82843 2.82843 0
      vertex 2.82843 -2.82843 0
    endloop
  endfacet
  facet normal 0 0 -1
    outer loop
      vertex 2 -3.4641 0
      vertex 2 3.4641 0
      vertex 2.82843 2.82843 0
    endloop
  endfacet
  facet normal 0 0 -1
    outer loop
      vertex 1.03528 -3.8637 0
      vertex 2 3.4641 0
      vertex 2 -3.4641 0
    endloop
  endfacet
  facet normal 0 0 -1
    outer loop
      vertex 1.03528 -3.8637 0
      vertex 1.03528 3.8637 0
      vertex 2 3.4641 0
    endloop
  endfacet
  facet normal 0 0 -1
    outer loop
      vertex -0 -4 0
      vertex 1.03528 3.8637 0
      vertex 1.03528 -3.8637 0
    endloop
  endfacet
  facet normal 0 0 -1
    outer loop
      vertex -0 -4 0
      vertex 0 4 0
      vertex 1.03528 3.8637 0
    endloop
  endfacet
  facet normal 0 0 -1
    outer loop
      vertex -1.03528 -3.8637 0
      vertex 0 4 0
      vertex -0 -4 0
    endloop
  endfacet
  facet normal 0 0 -1
    outer loop
      vertex -1.03528 -3.8637 0
      vertex -1.03528 3.8637 0
      vertex 0 4 0
    endloop
  endfacet
  facet normal 0 0 -1
    outer loop
      vertex -2 -3.4641 0
      vertex -1.03528 3.8637 0
      vertex -1.03528 -3.8637 0
    endloop
  endfacet
  facet normal 0 0 -1
    outer loop
      vertex -2 -3.4641 0
      vertex -2 3.4641 0
      vertex -1.03528 3.8637 0
    endloop
  endfacet
  facet normal 0 0 -1
    outer loop
      vertex -2.82843 -2.82843 0
      vertex -2 3.4641 0
      vertex -2 -3.4641 0
    endloop
  endfacet
  facet normal 0 0 -1
    outer loop
      vertex -2.82843 -2.82843 0
      vertex -2.82843 2.82843 0
      vertex -2 3.4641 0
    endloop
  endfacet
  facet normal 0 0 -1
    outer loop
      vertex -3.4641 -2 0
      vertex -2.82843 2.82843 0
      vertex -2.82843 -2.82843 0
    endloop
  endfacet
  facet normal 0 0 -1
    outer loop
      vertex -3.4641 -2 0
      vertex -3.4641 2 0
      vertex -2.82843 2.82843 0
    endloop
  endfacet
  facet normal 0 0 -1
    outer loop
      vertex -3.8637 -1.03528 0
      vertex -3.4641 2 0
      vertex -3.4641 -2 0
    endloop
  endfacet
  facet normal 0 0 -1
    outer loop
      vertex -3.8637 -1.03528 0
      vertex -3.8637 1.03528 0
      vertex -3.4641 2 0
    endloop
  endfacet
  facet normal 0 -0 -1
    outer loop
      vertex -3.8637 1.03528 0
      vertex -3.8637 -1.03528 0
      vertex -4 -0 0
    endloop
  endfacet
  facet normal 0 0 1
    outer loop
      vertex 3.8637 1.03528 10.8
      vertex 3.8637 -1.03528 10.8
      vertex 4 0 10.8
    endloop
  endfacet
  facet normal 0 0 1
    outer loop
      vertex 3.4641 2 10.8
      vertex 3.8637 -1.03528 10.8
      vertex 3.8637 1.03528 10.8
    endloop
  endfacet
  facet normal 0 0 1
    outer loop
      vertex 3.4641 2 10.8
      vertex 3.4641 -2 10.8
      vertex 3.8637 -1.03528 10.8
    endloop
  endfacet
  facet normal 0 0 1
    outer loop
      vertex 2.82843 2.82843 10.8
      vertex 3.4641 -2 10.8
      vertex 3.4641 2 10.8
    endloop
  endfacet
  facet normal 0 0 1
    outer loop
      vertex 2.82843 2.82843 10.8
      vertex 2.82843 -2.82843 10.8
      vertex 3.4641 -2 10.8
    endloop
  endfacet
  facet normal 0 0 1
    outer loop
      vertex 2 3.4641 10.8
      vertex 2.82843 -2.82843 10.8
      vertex 2.82843 2.82843 10.8
    endloop
  endfacet
  facet normal 0 0 1
    outer loop
      vertex 2 3.4641 10.8
      vertex 2 -3.4641 10.8
      vertex 2.82843 -2.82843 10.8
    endloop
  endfacet
  facet normal 0 0 1
    outer loop
      vertex 1.03528 3.8637 10.8
      vertex 2 -3.4641 10.8
      vertex 2 3.4641 10.8
    endloop
  endfacet
  facet normal 0 0 1
    outer loop
      vertex 1.03528 3.8637 10.8
      vertex 1.03528 -3.8637 10.8
      vertex 2 -3.4641 10.8
    endloop
  endfacet
  facet normal 0 0 1
    outer loop
      vertex 0 4 10.8
      vertex 1.03528 -3.8637 10.8
      vertex 1.03528 3.8637 10.8
    endloop
  endfacet
  facet normal 0 0 1
    outer loop
      vertex 0 4 10.8
      vertex -0 -4 10.8
      vertex 1.03528 -3.8637 10.8
    endloop
  endfacet
  facet normal -0 0 1
    outer loop
      vertex -1.03528 3.8637 10.8
      vertex -0 -4 10.8
      vertex 0 4 10.8
    endloop
  endfacet
  facet normal 0 0 1
    outer loop
      vertex -1.03528 3.8637 10.8
      vertex -1.03528 -3.8637 10.8
      vertex -0 -4 10.8
    endloop
  endfacet
  facet normal -0 0 1
    outer loop
      vertex -2 3.4641 10.8
      vertex -1.03528 -3.8637 10.8
      vertex -1.03528 3.8637 10.8
    endloop
  endfacet
  facet normal 0 0 1
    outer loop
      vertex -2 3.4641 10.8
      vertex -2 -3.4641 10.8
      vertex -1.03528 -3.8637 10.8
    endloop
  endfacet
  facet normal -0 0 1
    outer loop
      vertex -2.82843 2.82843 10.8
      vertex -2 -3.4641 10.8
      vertex -2 3.4641 10.8
    endloop
  endfacet
  facet normal 0 0 1
    outer loop
      vertex -2.82843 2.82843 10.8
      vertex -2.82843 -2.82843 10.8
      vertex -2 -3.4641 10.8
    endloop
  endfacet
  facet normal -0 0 1
    outer loop
      vertex -3.4641 2 10.8
      vertex -2.82843 -2.82843 10.8
      vertex -2.82843 2.82843 10.8
    endloop
  endfacet
  facet normal 0 0 1
    outer loop
      vertex -3.4641 2 10.8
      vertex -3.4641 -2 10.8
      vertex -2.82843 -2.82843 10.8
    endloop
  endfacet
  facet normal -0 0 1
    outer loop
      vertex -3.8637 1.03528 10.8
      vertex -3.4641 -2 10.8
      vertex -3.4641 2 10.8
    endloop
  endfacet
  facet normal 0 0 1
    outer loop
      vertex -3.8637 1.03528 10.8
      vertex -3.8637 -1.03528 10.8
      vertex -3.4641 -2 10.8
    endloop
  endfacet
  facet normal 0 -0 1
    outer loop
      vertex -3.8637 -1.03528 10.8
      vertex -3.8637 1.03528 10.8
      vertex -4 -0 10.8
    endloop
  endfacet
endsolid OpenSCAD_Model
